<mxfile host="Electron" agent="Mozilla/5.0 (Macintosh; Intel Mac OS X 10_15_7) AppleWebKit/537.36 (KHTML, like Gecko) draw.io/24.7.5 Chrome/126.0.6478.183 Electron/31.3.0 Safari/537.36" version="24.7.5">
  <diagram name="Page-1" id="5Q2x-DjUkmL3ttokMk2o">
    <mxGraphModel dx="954" dy="622" grid="1" gridSize="10" guides="1" tooltips="1" connect="1" arrows="1" fold="1" page="1" pageScale="1" pageWidth="827" pageHeight="1169" math="0" shadow="0">
      <root>
        <mxCell id="0" />
        <mxCell id="1" parent="0" />
        <mxCell id="zL3IRnQkxTbHGtbPsL68-10" value="" style="edgeStyle=orthogonalEdgeStyle;rounded=0;orthogonalLoop=1;jettySize=auto;html=1;" edge="1" parent="1" source="zL3IRnQkxTbHGtbPsL68-2" target="zL3IRnQkxTbHGtbPsL68-3">
          <mxGeometry relative="1" as="geometry" />
        </mxCell>
        <mxCell id="zL3IRnQkxTbHGtbPsL68-11" value="Extract&amp;nbsp;&lt;div&gt;csv files&lt;/div&gt;" style="edgeLabel;html=1;align=center;verticalAlign=middle;resizable=0;points=[];" vertex="1" connectable="0" parent="zL3IRnQkxTbHGtbPsL68-10">
          <mxGeometry x="-0.2889" y="-2" relative="1" as="geometry">
            <mxPoint x="8" y="-2" as="offset" />
          </mxGeometry>
        </mxCell>
        <mxCell id="zL3IRnQkxTbHGtbPsL68-2" value="Lottery Website" style="rounded=0;whiteSpace=wrap;html=1;" vertex="1" parent="1">
          <mxGeometry x="40" y="380" width="120" height="60" as="geometry" />
        </mxCell>
        <mxCell id="zL3IRnQkxTbHGtbPsL68-9" value="" style="edgeStyle=orthogonalEdgeStyle;rounded=0;orthogonalLoop=1;jettySize=auto;html=1;exitX=0.5;exitY=1;exitDx=0;exitDy=0;entryX=0;entryY=0.5;entryDx=0;entryDy=0;entryPerimeter=0;" edge="1" parent="1" source="zL3IRnQkxTbHGtbPsL68-3" target="zL3IRnQkxTbHGtbPsL68-8">
          <mxGeometry relative="1" as="geometry" />
        </mxCell>
        <mxCell id="zL3IRnQkxTbHGtbPsL68-16" value="Duplicate SQLIte" style="edgeLabel;html=1;align=center;verticalAlign=middle;resizable=0;points=[];" vertex="1" connectable="0" parent="zL3IRnQkxTbHGtbPsL68-9">
          <mxGeometry x="0.4207" y="-1" relative="1" as="geometry">
            <mxPoint x="4" y="-11" as="offset" />
          </mxGeometry>
        </mxCell>
        <mxCell id="zL3IRnQkxTbHGtbPsL68-22" style="edgeStyle=orthogonalEdgeStyle;rounded=0;orthogonalLoop=1;jettySize=auto;html=1;entryX=0;entryY=0.5;entryDx=0;entryDy=0;exitX=0.5;exitY=0;exitDx=0;exitDy=0;" edge="1" parent="1" source="zL3IRnQkxTbHGtbPsL68-3" target="zL3IRnQkxTbHGtbPsL68-17">
          <mxGeometry relative="1" as="geometry" />
        </mxCell>
        <mxCell id="zL3IRnQkxTbHGtbPsL68-24" value="Analyse data" style="edgeLabel;html=1;align=center;verticalAlign=middle;resizable=0;points=[];" vertex="1" connectable="0" parent="zL3IRnQkxTbHGtbPsL68-22">
          <mxGeometry x="0.5876" relative="1" as="geometry">
            <mxPoint x="-24" y="-10" as="offset" />
          </mxGeometry>
        </mxCell>
        <mxCell id="zL3IRnQkxTbHGtbPsL68-3" value="ebz" style="shape=process;whiteSpace=wrap;html=1;backgroundOutline=1;" vertex="1" parent="1">
          <mxGeometry x="250" y="380" width="100" height="60" as="geometry" />
        </mxCell>
        <mxCell id="zL3IRnQkxTbHGtbPsL68-12" value="" style="edgeStyle=orthogonalEdgeStyle;rounded=0;orthogonalLoop=1;jettySize=auto;html=1;entryX=1;entryY=0.75;entryDx=0;entryDy=0;exitX=0.5;exitY=0;exitDx=0;exitDy=0;exitPerimeter=0;" edge="1" parent="1" source="zL3IRnQkxTbHGtbPsL68-4" target="zL3IRnQkxTbHGtbPsL68-3">
          <mxGeometry relative="1" as="geometry" />
        </mxCell>
        <mxCell id="zL3IRnQkxTbHGtbPsL68-15" value="Extact data" style="edgeLabel;html=1;align=center;verticalAlign=middle;resizable=0;points=[];" vertex="1" connectable="0" parent="zL3IRnQkxTbHGtbPsL68-12">
          <mxGeometry x="-0.04" y="-4" relative="1" as="geometry">
            <mxPoint x="-27" y="-11" as="offset" />
          </mxGeometry>
        </mxCell>
        <mxCell id="zL3IRnQkxTbHGtbPsL68-4" value="SQLite" style="shape=cylinder3;whiteSpace=wrap;html=1;boundedLbl=1;backgroundOutline=1;size=15;" vertex="1" parent="1">
          <mxGeometry x="450" y="460" width="80" height="60" as="geometry" />
        </mxCell>
        <mxCell id="zL3IRnQkxTbHGtbPsL68-7" style="edgeStyle=orthogonalEdgeStyle;rounded=0;orthogonalLoop=1;jettySize=auto;html=1;exitX=0.5;exitY=1;exitDx=0;exitDy=0;" edge="1" parent="1" source="zL3IRnQkxTbHGtbPsL68-2" target="zL3IRnQkxTbHGtbPsL68-2">
          <mxGeometry relative="1" as="geometry" />
        </mxCell>
        <mxCell id="zL3IRnQkxTbHGtbPsL68-8" value="Postgres" style="shape=cylinder3;whiteSpace=wrap;html=1;boundedLbl=1;backgroundOutline=1;size=15;" vertex="1" parent="1">
          <mxGeometry x="450" y="550" width="80" height="60" as="geometry" />
        </mxCell>
        <mxCell id="zL3IRnQkxTbHGtbPsL68-13" style="edgeStyle=orthogonalEdgeStyle;rounded=0;orthogonalLoop=1;jettySize=auto;html=1;exitX=0.75;exitY=1;exitDx=0;exitDy=0;entryX=0;entryY=0;entryDx=0;entryDy=37.5;entryPerimeter=0;" edge="1" parent="1" source="zL3IRnQkxTbHGtbPsL68-3" target="zL3IRnQkxTbHGtbPsL68-4">
          <mxGeometry relative="1" as="geometry" />
        </mxCell>
        <mxCell id="zL3IRnQkxTbHGtbPsL68-14" value="Persists CSV" style="edgeLabel;html=1;align=center;verticalAlign=middle;resizable=0;points=[];" vertex="1" connectable="0" parent="zL3IRnQkxTbHGtbPsL68-13">
          <mxGeometry x="0.0685" y="2" relative="1" as="geometry">
            <mxPoint x="15" y="-15" as="offset" />
          </mxGeometry>
        </mxCell>
        <mxCell id="zL3IRnQkxTbHGtbPsL68-23" value="" style="group" vertex="1" connectable="0" parent="1">
          <mxGeometry x="414" y="270" width="140" height="80" as="geometry" />
        </mxCell>
        <mxCell id="zL3IRnQkxTbHGtbPsL68-17" value="" style="shape=document;whiteSpace=wrap;html=1;boundedLbl=1;" vertex="1" parent="zL3IRnQkxTbHGtbPsL68-23">
          <mxGeometry width="120" height="60" as="geometry" />
        </mxCell>
        <mxCell id="zL3IRnQkxTbHGtbPsL68-20" value="" style="shape=document;whiteSpace=wrap;html=1;boundedLbl=1;" vertex="1" parent="zL3IRnQkxTbHGtbPsL68-23">
          <mxGeometry x="10" y="10" width="120" height="60" as="geometry" />
        </mxCell>
        <mxCell id="zL3IRnQkxTbHGtbPsL68-21" value="Results of analysis" style="shape=document;whiteSpace=wrap;html=1;boundedLbl=1;" vertex="1" parent="zL3IRnQkxTbHGtbPsL68-23">
          <mxGeometry x="20" y="20" width="120" height="60" as="geometry" />
        </mxCell>
      </root>
    </mxGraphModel>
  </diagram>
</mxfile>
